# xmcd CD database file
#
# Track frame offsets:
#	150
#	14310
#	33143
#	47841
#
# Disc length: 821 seconds
#
# Revision: 1
# Processed by: cddbd v1.5.1PL0 Copyright (c) Steve Scherf et al.
# Submitted via: CDex 1.51
#
DISCID=25033304
DTITLE=Ash - Satellite Transmissions, vol. 1
DYEAR=2001
DGENRE=Rock
TTITLE0=Cherry Bomb (live from the XMU Audiotorium)
TTITLE1=Walking Barefoot (live from the XMU Audiotorium)
TTITLE2=Girl From Mars (live from the XMU Audiotorium)
TTITLE3=Burn Baby Burn (live from the XMU Audiotorium)
EXTD=YEAR: 2001
EXTT0=
EXTT1=
EXTT2=
EXTT3=
PLAYORDER=
